 <svg xmlns="http://www.w3.org/2000/svg" viewBox="0 0 666.85 666.85">
      <g style="fill-rule:evenodd" transform="matrix(.70711 .70711 -.70711 .70711 338.9 -204.77)">
        <path id="path586" xmlns:inkscape="http://www.inkscape.org/namespaces/inkscape" inkscape:connector-curvature="0"
          style="stroke:#0075bd;stroke-width:5.6619;fill:#ffffff" transform="matrix(1.3246,0,0,1.3246,-390.82,-391.61)"
          d="m827.75 586.66a248.33 248.33 0 1 0 -496.65 0 248.32 248.32 0 1 0 496.65 0h-248.32z" />
        <path id="path591" xmlns:inkscape="http://www.inkscape.org/namespaces/inkscape" inkscape:connector-curvature="0"
          style="stroke:#0075bd;stroke-width:5.6619;fill:#0075bd" transform="matrix(1.2551,0,0,1.2551,-350.51,-350.8)"
          d="m827.75 586.66a248.33 248.33 0 1 0 -496.65 0 248.32 248.32 0 1 0 496.65 0h-248.32z" />
        <path id="path707" style="stroke-width:3.5778pt;fill:#ffffff"
          xmlns:inkscape="http://www.inkscape.org/namespaces/inkscape" inkscape:connector-curvature="0"
          d="m581.49 238.84-263.4 263.4 118.78-0.66-88.07 88.07-176.87 0.63 0.63-176.87 88.07-88.07-0.66 118.78 263.4-263.4 58.12 58.12z" />
      </g>
    </svg>